<svg xmlns="http://www.w3.org/2000/svg" xmlns:xlink="http://www.w3.org/1999/xlink" width="400" height="109" viewBox="0 0 400 109">
  <defs>
    <clipPath id="clip-Custom_Size_1">
      <rect width="400" height="109"/>
    </clipPath>
  </defs>
  <g id="Custom_Size_1" data-name="Custom Size – 1" clip-path="url(#clip-Custom_Size_1)">
    <rect width="400" height="109" fill="#fff"/>
    <g id="earth_SVG" data-name="earth SVG" transform="translate(22 11.093)">
      <g id="Group_1" data-name="Group 1" transform="translate(3.378 3.144)">
        <path id="Path_1" data-name="Path 1" d="M309.416,35.827l-4.492,2.994-7.486-1.5-4.492-1.5-5.989,1.5-4.492-1.5,2.994-5.989h5.989l5.869-2.935A42.885,42.885,0,0,1,309.416,35.827Z" transform="translate(-237.936 -25.495)" fill="#1da018"/>
        <path id="Path_2" data-name="Path 2" d="M56.959,22.946l-1.5,4.492-4.492,1.5-4.492,7.486-7.486,4.492-10.481,1.5V46.9L31.5,49.9v5.989l-4.492-2.995L22.521,49.9l-2.605-7.831A43.393,43.393,0,0,1,43.723,18.6l4.252,2.845Z" transform="translate(-19.916 -18.604)" fill="#1da018"/>
        <path id="Path_3" data-name="Path 3" d="M102.033,225.417l-1.5,7.486-5.989,5.989v4.492l-5.989,4.492v7.486l-4.492-1.5-2.995-7.486V231.406l-7.486-1.5-2.994-5.989v-4.492l2.994-2.994,4.492-4.492,2.994,5.989H91.552l4.492,7.486Z" transform="translate(-61.996 -179.151)" fill="#1da018"/>
        <path id="Path_4" data-name="Path 4" d="M308.525,117.57a43.379,43.379,0,0,1-2.4,46.221l-4.043-4.043v-5.989l-2.995-5.989-2.994-5.989v-5.989l-4.492-2.994-5.989,1.5L275.136,129.8l-1.5-10.481,4.492-4.492h8.984l2.994,4.492,8.984,1.5,8.984-2.994Z" transform="translate(-230.607 -98.51)" fill="#1da018"/>
      </g>
      <path id="Path_5" data-name="Path 5" d="M52.4,15.039l5.989-1.5,4.492,1.5,7.486,1.5,4.492-2.994A42.76,42.76,0,0,1,81.3,22.271l-.449.255L71.863,25.52l-8.984-1.5-2.994-4.492H50.9L46.41,24.023l1.5,10.481L58.388,39l5.989-1.5,4.492,2.994v5.989l2.994,5.989,2.994,5.989v5.989L78.9,68.492A43.421,43.421,0,0,1,3.378,26.673L5.983,34.5,10.475,37.5l4.492,2.994-2.995,2.995v4.492l2.994,5.989,7.486,1.5V70.438l2.994,7.486,4.492,1.5V71.936l5.989-4.492V62.952l5.989-5.989,1.5-7.486H37.426L32.934,41.99H22.453L19.459,36l-4.492,4.492V34.5l-2.994-2.994V27.017l10.481-1.5,7.486-4.492,4.492-7.486,4.492-1.5,1.5-4.492-8.984-1.5L27.185,3.21A43.424,43.424,0,0,1,62.76,4.618L56.891,7.553H50.9l-2.994,5.989Z" transform="translate(0 -0.067)" fill="#74bdfb"/>
    </g>
    <text id="Blue_Planet_Trust_ONE_STEP_TOWARDS_GREEN" data-name="Blue Planet Trust
ONE STEP TOWARDS GREEN" transform="translate(124 59)" fill="#418cfc" font-size="30" font-family="SegoeUI-Bold, Segoe UI" font-weight="700"><tspan x="0" y="0">Blue </tspan><tspan y="0" fill="#20b51f">Planet Trust</tspan><tspan fill="#009432" font-size="13" font-family="SegoeUI-Semibold, Segoe UI" font-weight="600"><tspan x="0" y="22">ONE STEP TOWARDS GREEN</tspan></tspan></text>
  </g>
</svg>
